# xmcd
# Copyright (C) 1995-1998 Ti Kan
#
# Track frame offsets:
#       150
#       29372
#       51473
#       80716
#       117439
#       138831
#       172645
#       193408
#       221317
#       255896
#       272796
#       291275
#       306878
#
# Disc length: 4372 seconds
#
# Revision: 0
# Processed by: cddbd v1.5.1PL0 Copyright (c) Steve Scherf et al.
# Submitted via: CD-Transfer v1.0
#
DISCID=bd11120d
DTITLE=Various House - Club House
DYEAR=04
DGENRE=
TTITLE0=Danii Minogue Vs Flower Power - You Won´t Forget About Me
TTITLE1=Inaya Girl - Nasty Girl
TTITLE2=Axwell - Feel The Vibe
TTITLE3=Kano - It´a War
TTITLE4=Alter Ego - Rocker
TTITLE5=Ktf Presents Ny Sax - From Hell To Heaven
TTITLE6=Giaga Robot - Every Monday
TTITLE7=Stefano Noferini - Play
TTITLE8=West Box - Excess
TTITLE9=Hughes and Spier Revelations
TTITLE10=Ageop - Futurology
TTITLE11=Decò - Magic Groove
TTITLE12=Little Exuma - Tribal Express
EXTD=
EXTT0=
EXTT1=
EXTT2=
EXTT3=
EXTT4=
EXTT5=
EXTT6=
EXTT7=
EXTT8=
EXTT9=
EXTT10=
EXTT11=
EXTT12=
PLAYORDER=
